<?xml version="1.0" standalone="no"?>
<!DOCTYPE svg PUBLIC "-//W3C//DTD SVG 20010904//EN"
 "http://www.w3.org/TR/2001/REC-SVG-20010904/DTD/svg10.dtd">
<svg version="1.0" xmlns="http://www.w3.org/2000/svg"
 width="860.000000pt" height="300.000000pt" viewBox="0 0 860.000000 300.000000"
 preserveAspectRatio="xMidYMid meet">

<g transform="translate(0.000000,300.000000) scale(0.100000,-0.100000)"
fill="#000000" stroke="none">
<path d="M7165 2779 c-89 -10 -597 -63 -865 -90 -141 -14 -213 -25 -230 -36
-14 -9 -151 -116 -304 -237 -153 -122 -345 -273 -425 -337 -84 -66 -147 -124
-149 -135 -1 -10 4 -28 12 -39 16 -22 -63 -21 726 -6 l366 7 472 438 c402 373
487 454 470 445 -2 -1 -34 -5 -73 -10z"/>
<path d="M6936 2289 l-346 -320 16 -37 c8 -20 60 -154 115 -296 55 -143 105
-266 111 -273 8 -10 107 -13 489 -13 264 0 479 1 479 3 0 1 -70 176 -155 387
-86 212 -199 494 -253 627 -53 134 -100 243 -103 243 -4 0 -163 -144 -353
-321z"/>
<path d="M5760 1740 c-135 -4 -314 -8 -397 -9 -139 -1 -155 -3 -173 -21 -11
-11 -20 -33 -20 -49 0 -41 495 -1232 521 -1254 20 -16 64 -17 605 -17 l583 0
-24 63 c-13 34 -106 265 -206 512 -100 248 -212 524 -248 615 l-67 165 -164 1
c-91 0 -275 -3 -410 -6z"/>
<path d="M795 1713 c3 -10 116 -214 251 -454 134 -239 244 -440 244 -446 0 -6
-54 -105 -119 -222 l-119 -211 177 0 176 1 240 420 c132 231 241 427 243 435
3 13 -123 350 -137 366 -3 4 -64 -96 -135 -223 -71 -126 -132 -232 -136 -234
-4 -2 -69 108 -146 245 -76 137 -151 270 -167 295 l-27 45 -176 0 c-164 0
-176 -1 -169 -17z"/>
<path d="M1870 1725 c0 -3 30 -81 66 -173 90 -229 169 -428 214 -544 l38 -98
-147 0 -147 0 -77 -135 c-42 -74 -77 -139 -77 -145 0 -6 101 -11 281 -12 l282
-3 45 -118 45 -117 173 0 c96 0 174 3 174 8 0 4 -125 306 -278 672 l-279 665
-156 3 c-86 1 -157 0 -157 -3z"/>
<path d="M3110 1294 c0 -315 -3 -448 -12 -477 -17 -58 -82 -122 -138 -137 -57
-15 -132 -7 -176 20 l-34 22 36 -84 c20 -46 52 -122 72 -171 l35 -87 47 0 c72
0 195 36 260 75 105 64 167 139 212 261 22 57 22 72 26 537 l3 477 -165 0
-166 0 0 -436z"/>
<path d="M3590 1586 l0 -146 143 0 c128 0 146 -2 181 -23 60 -34 81 -69 81
-135 0 -70 -28 -115 -89 -143 -34 -15 -66 -19 -178 -19 l-138 0 0 -142 0 -143
198 -225 198 -225 202 -3 203 -2 -211 237 -210 238 48 16 c129 44 206 108 259
216 34 69 38 85 41 173 8 197 -71 337 -233 414 -84 40 -125 46 -317 53 l-178
6 0 -147z"/>
<path d="M4470 1723 c0 -7 83 -223 219 -568 50 -126 91 -233 91 -237 0 -5 -65
-8 -144 -8 -129 0 -145 -2 -150 -17 -20 -68 -66 -246 -66 -258 0 -13 35 -15
240 -15 l240 0 11 -27 c5 -16 26 -70 45 -121 l36 -92 175 0 c136 0 174 3 170
12 -6 16 -470 1126 -522 1251 l-37 87 -154 0 c-85 0 -154 -3 -154 -7z"/>
</g>
</svg>
