<?xml version="1.0" encoding="UTF-8"?><svg id="Layer_1" xmlns="http://www.w3.org/2000/svg" viewBox="0 0 1000 368.42"><defs><style>.cls-1,.cls-2{fill:#033b55;}.cls-3{fill:#f79502;}.cls-4{fill:#3a3a3a;}.cls-2{opacity:.5;}</style></defs><g><polygon class="cls-3" points="308.4 116.53 288.54 130.76 183.1 206.29 183.1 348.23 159.96 348.23 159.96 205.78 52.94 129.12 33.12 114.92 33.09 114.88 52.94 100.66 66.86 90.69 86.73 104.92 72.81 114.89 171.89 185.86 268.67 116.53 255.5 107.1 275.36 92.87 288.53 102.31 308.4 116.53"/><polygon class="cls-1" points="267.13 86.97 247.26 101.2 169.59 45.57 94.97 99.02 75.11 84.79 169.28 17.32 169.36 17.43 169.59 17.1 267.13 86.97"/><polygon class="cls-1" points="108 101.54 94.5 111.17 99.56 107.54 107.97 101.52 108 101.54"/><polygon class="cls-2" points="253.93 117.13 241.92 125.73 220.93 140.77 183.92 167.28 178.21 171.37 178.21 171.41 171.53 176.23 164.23 171.09 164.23 171.06 99.56 124.74 87.58 116.16 87.56 116.13 91.93 113 94.5 111.17 108 101.54 112.99 97.98 112.95 97.95 169.86 57.18 169.91 57.24 170.05 57.05 219.02 92.12 248.29 113 248.25 113.06 253.93 117.13"/><polygon class="cls-1" points="310.01 258.31 309.21 258.31 309.51 258.73 190.03 344.31 190.03 315.85 286.87 246.48 286.87 141.7 310.01 125.12 310.01 258.31"/><polygon class="cls-1" points="152.57 316.71 152.57 345.17 33.09 259.58 33.39 259.17 32.59 259.17 32.59 125.98 55.73 142.55 55.73 247.34 152.57 316.71"/><polygon class="cls-2" points="280.71 244 190.03 307.5 190.03 209.37 280.71 145.88 280.71 244"/><polygon class="cls-2" points="61.89 244.13 152.57 307.62 152.57 209.49 61.89 146 61.89 244.13"/><polygon class="cls-4" points="178.66 181.24 178.21 181.87 178.21 180.93 178.66 181.24"/><polygon class="cls-4" points="178.21 180.93 178.66 181.24 178.21 181.87 178.21 180.93"/><polygon class="cls-4" points="220.93 140.77 183.92 167.28 220.81 140.61 220.93 140.77"/><polygon class="cls-1" points="94.5 111.17 91.93 113 91.93 113 94.5 111.17"/></g><g><path class="cls-1" d="M358.33,73.49l35.1,66.99,35.7-66.99h29.89l-51.75,92.67v49.74h-27.48v-50.14l-51.55-92.27h30.09Z"/><path class="cls-1" d="M498.33,73.49h28.08l52.35,142.41h-28.48l-11.83-35.5h-52.29l-11.9,35.5h-28.48l52.55-142.41Zm33.63,87.45l-19.59-58.77-19.69,58.77h39.28Z"/><path class="cls-1" d="M587.19,185.61c1.74,1.2,4.81,2.64,9.23,4.31,4.41,1.67,9.63,2.51,15.65,2.51,5.21,0,9.49-.89,12.84-2.68,3.34-1.79,5.92-4.47,7.72-8.04,1.81-3.57,3.01-8.21,3.61-13.9s.9-12.51,.9-20.45V73.49h27.68v71.81c0,10.61-.6,20.29-1.81,29.04-1.2,8.75-3.54,16.31-7.02,22.68-3.48,6.37-8.72,11.27-15.75,14.72-7.02,3.45-16.35,5.17-27.98,5.17-6.42,0-12.17-.74-17.25-2.21-5.08-1.47-9.76-3.68-14.04-6.62l6.22-22.46Z"/><path class="cls-1" d="M692.89,215.9V73.49h62.98c6.55,0,12.6,1.34,18.15,4.01,5.55,2.68,10.36,6.29,14.44,10.83,4.08,4.55,7.22,9.63,9.43,15.24,2.21,5.62,3.31,11.37,3.31,17.25s-1.04,11.8-3.11,17.35c-2.07,5.55-5.05,10.4-8.93,14.54-3.88,4.15-8.42,7.36-13.64,9.63l32.49,53.55h-30.49l-29.28-47.74h-27.68v47.74h-27.68Zm27.68-72.01h34.7c3.48,0,6.55-1.03,9.23-3.11,2.67-2.07,4.81-4.85,6.42-8.32,1.61-3.48,2.41-7.35,2.41-11.63,0-4.54-.94-8.52-2.81-11.93-1.87-3.41-4.25-6.12-7.12-8.12-2.88-2.01-5.99-3.01-9.33-3.01h-33.5v46.13Z"/><path class="cls-1" d="M864.99,73.49h28.08l52.35,142.41h-28.48l-11.83-35.5h-52.29l-11.9,35.5h-28.48l52.55-142.41Zm33.63,87.45l-19.59-58.77-19.69,58.77h39.28Z"/></g><g><path class="cls-3" d="M671.37,303.94c0,3.38-.86,6.4-2.58,9.05-1.72,2.65-4.04,4.72-6.94,6.22-2.9,1.5-6.08,2.25-9.52,2.25h-32.07v-67.97h32.74c3.19,0,5.95,.85,8.28,2.54,2.33,1.69,4.12,3.86,5.36,6.51,1.25,2.65,1.87,5.41,1.87,8.28,0,3.38-.86,6.51-2.58,9.38-1.72,2.87-4.12,5.01-7.18,6.41,3.89,1.15,6.97,3.29,9.24,6.41,2.26,3.13,3.4,6.77,3.4,10.91Zm-44.42-44.61v25.08h23.36c2.23,0,4.21-.59,5.94-1.77,1.72-1.18,3.09-2.73,4.12-4.64,1.02-1.91,1.53-3.96,1.53-6.13,0-2.3-.48-4.39-1.44-6.27-.96-1.88-2.27-3.4-3.92-4.55-1.66-1.15-3.54-1.72-5.65-1.72h-23.93Zm37.72,43.46c0-2.3-.51-4.42-1.53-6.37-1.02-1.95-2.41-3.53-4.16-4.74-1.76-1.21-3.75-1.82-5.98-1.82h-26.04v25.75h25.37c2.3,0,4.37-.61,6.22-1.82,1.85-1.21,3.33-2.79,4.45-4.74,1.12-1.95,1.68-4.04,1.68-6.27Z"/><path class="cls-3" d="M790.07,322.42c-3.57,0-6.88-.68-9.91-2.05-3.03-1.36-5.65-3.24-7.85-5.62-2.2-2.38-3.91-5.11-5.12-8.19-1.21-3.08-1.82-6.33-1.82-9.76s.61-6.87,1.82-9.95c1.21-3.08,2.94-5.81,5.17-8.19,2.23-2.38,4.87-4.25,7.9-5.62,3.03-1.36,6.33-2.05,9.91-2.05s6.86,.68,9.86,2.05c3,1.36,5.62,3.24,7.85,5.62,2.23,2.38,3.96,5.11,5.17,8.19,1.21,3.08,1.82,6.39,1.82,9.95s-.61,6.68-1.82,9.76c-1.21,3.08-2.92,5.81-5.12,8.19-2.2,2.38-4.82,4.25-7.85,5.62-3.03,1.36-6.37,2.05-10,2.05Zm-18.09-25.51c0,3.68,.81,7.02,2.44,10.03,1.63,3.01,3.81,5.39,6.56,7.13,2.74,1.74,5.78,2.61,9.09,2.61s6.35-.89,9.09-2.66c2.74-1.77,4.94-4.2,6.61-7.27,1.66-3.07,2.49-6.42,2.49-10.03s-.83-7.03-2.49-10.07c-1.66-3.04-3.86-5.45-6.61-7.22-2.75-1.77-5.78-2.66-9.09-2.66s-6.33,.92-9.05,2.76c-2.71,1.84-4.9,4.26-6.56,7.27-1.66,3.01-2.49,6.38-2.49,10.12Z"/><path class="cls-3" d="M911.26,271.78l14.65,19.45,.77,1.43,.77-1.43,14.55-19.45h7.37l-18.95,24.98,18.95,24.7h-7.37l-14.55-19.36-.77-1.34-.77,1.34-14.55,19.36h-7.37l18.86-24.7-18.86-24.98h7.28Z"/></g><rect class="cls-1" x="353.16" y="280.93" width="227.05" height="14.67"/></svg>