<?xml version="1.0" encoding="UTF-8"?><svg id="Layer_1" xmlns="http://www.w3.org/2000/svg" viewBox="0 0 315.1 368.42"><defs><style>.cls-1,.cls-2{fill:#033b55;}.cls-3{fill:#f79502;}.cls-4{fill:#3a3a3a;}.cls-2{opacity:.5;}</style></defs><polygon class="cls-3" points="295.4 116.53 275.54 130.76 170.1 206.29 170.1 348.23 146.96 348.23 146.96 205.78 39.94 129.12 20.12 114.92 20.09 114.88 39.94 100.66 53.86 90.69 73.73 104.92 59.81 114.89 158.89 185.86 255.67 116.53 242.5 107.1 262.36 92.87 275.53 102.31 295.4 116.53"/><polygon class="cls-1" points="254.13 86.97 234.26 101.2 156.59 45.57 81.97 99.02 62.11 84.79 156.28 17.32 156.36 17.43 156.59 17.1 254.13 86.97"/><polygon class="cls-1" points="95 101.54 81.5 111.17 86.56 107.54 94.97 101.52 95 101.54"/><polygon class="cls-2" points="240.93 117.13 228.92 125.73 207.93 140.77 170.92 167.28 165.21 171.37 165.21 171.41 158.53 176.23 151.23 171.09 151.23 171.06 86.56 124.74 74.58 116.16 74.56 116.13 78.93 113 81.5 111.17 95 101.54 99.99 97.98 99.95 97.95 156.86 57.18 156.91 57.24 157.05 57.05 206.02 92.12 235.29 113 235.25 113.06 240.93 117.13"/><polygon class="cls-1" points="297.01 258.31 296.21 258.31 296.51 258.73 177.03 344.31 177.03 315.85 273.87 246.48 273.87 141.7 297.01 125.12 297.01 258.31"/><polygon class="cls-1" points="139.57 316.71 139.57 345.17 20.09 259.58 20.39 259.17 19.59 259.17 19.59 125.98 42.73 142.55 42.73 247.34 139.57 316.71"/><polygon class="cls-2" points="267.71 244 177.03 307.5 177.03 209.37 267.71 145.88 267.71 244"/><polygon class="cls-2" points="48.89 244.13 139.57 307.62 139.57 209.49 48.89 146 48.89 244.13"/><polygon class="cls-4" points="165.66 181.24 165.21 181.87 165.21 180.93 165.66 181.24"/><polygon class="cls-4" points="165.21 180.93 165.66 181.24 165.21 181.87 165.21 180.93"/><polygon class="cls-4" points="207.93 140.77 170.92 167.28 207.81 140.61 207.93 140.77"/><polygon class="cls-1" points="81.5 111.17 78.93 113 78.93 113 81.5 111.17"/></svg>